<?xml version="1.0" encoding="UTF-8" standalone="no"?>
<!DOCTYPE svg PUBLIC "-//W3C//DTD SVG 1.0//EN"
 "http://www.w3.org/TR/2001/REC-SVG-20010904/DTD/svg10.dtd" [
 <!ATTLIST svg xmlns:xlink CDATA #FIXED "http://www.w3.org/1999/xlink">
]>
<!-- Generated by dot version 2.8 (Fri Feb  3 22:38:53 UTC 2006)
     For user: Bill Gates -->
<!-- Title: d Pages: 1 -->
<svg width="570pt" height="284pt"
 viewBox = "0 0 570 284"
 xmlns="http://www.w3.org/2000/svg" xmlns:xlink="http://www.w3.org/1999/xlink">
<g id="graph0" class="graph" style="font-family:Times-Roman;font-size:14.00;">
<title>d</title>
<polygon style="fill:white;stroke:white;" points="-2,286 -2,-2 572,-2 572,286 -2,286"/>
<text text-anchor="middle" x="285" y="273" style="font-family:Helvetica;">generated by dimple 0.13</text>
<!-- tango.net.Uri -->
<g id="node1" class="node"><title>tango.net.Uri</title>
<ellipse style="fill:lightgrey;stroke:black;" cx="240" cy="22" rx="53" ry="18"/>
<text text-anchor="middle" x="240" y="27" style="font-family:Helvetica;">tango.net.Uri</text>
</g>
<!-- tango.io.Exception -->
<g id="node3" class="node"><title>tango.io.Exception</title>
<ellipse style="fill:lightgrey;stroke:black;" cx="74" cy="94" rx="70" ry="18"/>
<text text-anchor="middle" x="74" y="99" style="font-family:Helvetica;">tango.io.Exception</text>
</g>
<!-- tango.net.Uri&#45;&gt;tango.io.Exception -->
<g id="edge2" class="edge"><title>tango.net.Uri&#45;&gt;tango.io.Exception</title>
<path style="fill:none;stroke:black;" d="M207,36C182,47 147,62 120,74"/>
<polygon style="fill:black;stroke:black;" points="121,78 110,78 118,71 121,78"/>
</g>
<!-- tango.convert.Integer -->
<g id="node5" class="node"><title>tango.convert.Integer</title>
<ellipse style="fill:lightgrey;stroke:black;" cx="240" cy="94" rx="78" ry="18"/>
<text text-anchor="middle" x="240" y="99" style="font-family:Helvetica;">tango.convert.Integer</text>
</g>
<!-- tango.net.Uri&#45;&gt;tango.convert.Integer -->
<g id="edge4" class="edge"><title>tango.net.Uri&#45;&gt;tango.convert.Integer</title>
<path style="fill:none;stroke:black;" d="M240,40C240,48 240,57 240,66"/>
<polygon style="fill:black;stroke:black;" points="244,66 240,76 237,66 244,66"/>
</g>
<!-- tango.io.protocol.model.IWriter -->
<g id="node7" class="node"><title>tango.io.protocol.model.IWriter</title>
<ellipse style="fill:lightgrey;stroke:black;" cx="444" cy="94" rx="108" ry="18"/>
<text text-anchor="middle" x="444" y="99" style="font-family:Helvetica;">tango.io.protocol.model.IWriter</text>
</g>
<!-- tango.net.Uri&#45;&gt;tango.io.protocol.model.IWriter -->
<g id="edge6" class="edge"><title>tango.net.Uri&#45;&gt;tango.io.protocol.model.IWriter</title>
<path style="fill:none;stroke:black;" d="M277,35C308,46 353,62 388,75"/>
<polygon style="fill:black;stroke:black;" points="389,72 398,78 387,78 389,72"/>
</g>
<!-- tango.convert.Atoi -->
<g id="node9" class="node"><title>tango.convert.Atoi</title>
<ellipse style="fill:lightgrey;stroke:black;" cx="240" cy="166" rx="69" ry="18"/>
<text text-anchor="middle" x="240" y="171" style="font-family:Helvetica;">tango.convert.Atoi</text>
</g>
<!-- tango.convert.Integer&#45;&gt;tango.convert.Atoi -->
<g id="edge8" class="edge"><title>tango.convert.Integer&#45;&gt;tango.convert.Atoi</title>
<path style="fill:none;stroke:black;" d="M240,112C240,120 240,129 240,138"/>
<polygon style="fill:black;stroke:black;" points="244,138 240,148 237,138 244,138"/>
</g>
<!-- tango.io.model.IBuffer -->
<g id="node11" class="node"><title>tango.io.model.IBuffer</title>
<ellipse style="fill:lightgrey;stroke:black;" cx="426" cy="166" rx="81" ry="18"/>
<text text-anchor="middle" x="426" y="171" style="font-family:Helvetica;">tango.io.model.IBuffer</text>
</g>
<!-- tango.io.protocol.model.IWriter&#45;&gt;tango.io.model.IBuffer -->
<g id="edge10" class="edge"><title>tango.io.protocol.model.IWriter&#45;&gt;tango.io.model.IBuffer</title>
<path style="fill:none;stroke:black;" d="M439,112C437,120 435,129 433,138"/>
<polygon style="fill:black;stroke:black;" points="436,139 430,148 430,137 436,139"/>
</g>
<!-- tango.io.model.IConduit -->
<g id="node13" class="node"><title>tango.io.model.IConduit</title>
<ellipse style="fill:lightgrey;stroke:black;" cx="480" cy="238" rx="86" ry="18"/>
<text text-anchor="middle" x="480" y="243" style="font-family:Helvetica;">tango.io.model.IConduit</text>
</g>
<!-- tango.io.protocol.model.IWriter&#45;&gt;tango.io.model.IConduit -->
<g id="edge12" class="edge"><title>tango.io.protocol.model.IWriter&#45;&gt;tango.io.model.IConduit</title>
<path style="fill:none;stroke:black;" d="M479,111C493,120 508,133 516,148 526,169 515,194 502,212"/>
<polygon style="fill:black;stroke:black;" points="505,214 496,220 499,210 505,214"/>
</g>
<!-- tango.io.model.IBuffer&#45;&gt;tango.io.model.IConduit -->
<g id="edge14" class="edge"><title>tango.io.model.IBuffer&#45;&gt;tango.io.model.IConduit</title>
<path style="fill:none;stroke:black;" d="M439,184C445,192 453,203 460,212"/>
<polygon style="fill:black;stroke:black;" points="463,210 466,220 457,214 463,210"/>
</g>
</g>
</svg>
