<?xml version="1.0" encoding="UTF-8" standalone="no"?>
<!-- Author: Aziz Köksal -->
<!-- Created with Inkscape (http://www.inkscape.org/) -->
<svg
   xmlns:svg="http://www.w3.org/2000/svg"
   xmlns="http://www.w3.org/2000/svg"
   xmlns:xlink="http://www.w3.org/1999/xlink"
   xmlns:inkscape="http://www.inkscape.org/namespaces/inkscape"
   version="1.0"
   width="100"
   height="100"
   id="svg2">
  <defs
     id="defs4">
    <filter
       id="filter3209">
      <feGaussianBlur
         id="feGaussianBlur3211"
         stdDeviation="0.74223032"
         inkscape:collect="always" />
    </filter>
  </defs>
  <path
     d="M 68.531307,28.044978 L 59.534577,28.044978 L 61.294807,21.101848 C 63.739567,11.420593 66.771087,6.531055 70.193747,6.531055 C 71.171657,6.531055 71.856187,7.020009 71.856187,7.802332 C 71.856187,7.997913 71.758397,8.291286 71.367237,8.878029 C 70.584917,10.051514 70.291537,10.931631 70.291537,11.909536 C 70.291537,14.549878 72.442937,16.701273 75.083277,16.701273 C 78.016987,16.701273 80.070597,14.549878 80.070597,11.518374 C 80.070597,6.726641 76.256757,3.695129 70.389327,3.695129 C 65.304227,3.695129 60.610267,5.846525 57.089815,9.660353 C 52.982616,14.158714 51.124588,18.168141 48.288665,28.044978 L 41.149954,28.044978 L 40.269839,32.152181 L 47.40855,32.152181 C 42.127865,55.426311 39.389724,67.650157 38.802981,70.48608 C 35.771477,84.959068 33.913449,88.968495 30.001831,88.968495 C 29.023926,88.968495 28.241601,88.479542 28.241601,87.892799 C 28.241601,87.697218 28.339391,87.403846 28.632763,87.012684 C 29.415086,85.936989 29.806249,84.7635 29.806249,83.687805 C 29.806249,81.340834 27.459274,78.993859 25.014512,78.993859 C 22.276379,78.993859 19.929403,81.438625 19.929403,84.274549 C 19.929403,88.968491 23.743241,92 29.610668,92 C 33.717868,92 37.336125,90.630932 40.36763,87.795009 C 44.279248,84.274552 46.9196,79.091639 50.146685,69.019222 C 52.493657,61.293775 53.56936,56.893168 58.850047,32.152181 L 67.651197,32.152181 L 68.531307,28.044978"
     id="text2382"
     style="font-size:97.79055786px;font-style:normal;font-weight:normal;opacity:0.6;fill:#000000;fill-opacity:1;stroke:none;stroke-width:1px;stroke-linecap:butt;stroke-linejoin:miter;stroke-opacity:1;font-family:Bitstream Vera Sans;-inkscape-font-specification:Bitstream Vera Sans" />
  <use
     transform="translate(2,2)"
     id="use3175"
     style="opacity:0.3;filter:url(#filter3209)"
     x="0"
     y="0"
     width="100"
     height="100"
     xlink:href="#text2382" />
</svg>
