<?xml version="1.0" encoding="UTF-8" standalone="no"?>
<!-- Author: Aziz Köksal -->
<!-- Created with Inkscape (http://www.inkscape.org/) -->
<svg
   xmlns:svg="http://www.w3.org/2000/svg"
   xmlns="http://www.w3.org/2000/svg"
   xmlns:xlink="http://www.w3.org/1999/xlink"
   xmlns:inkscape="http://www.inkscape.org/namespaces/inkscape"
   version="1.0"
   width="100"
   height="100"
   id="svg2383">
  <defs
     id="defs2386">
    <filter
       height="1.336"
       y="-0.168"
       width="1.816"
       x="-0.40799999"
       id="filter3371">
      <feGaussianBlur
         id="feGaussianBlur3373"
         stdDeviation="1.19"
         inkscape:collect="always" />
    </filter>
    <filter
       height="1.336"
       width="1.816"
       x="4"
       id="filter3375">
      <feGaussianBlur
         id="feGaussianBlur3377"
         stdDeviation="1.19"
         inkscape:collect="always" />
    </filter>
    <filter
       height="3.3599999"
       y="-1"
       width="2.72"
       x="-1.2000122"
       id="filter3419">
      <feGaussianBlur
         id="feGaussianBlur3421"
         stdDeviation="1.0"
         inkscape:collect="always" />
    </filter>
    <filter
       height="1.24"
       y="-0.12"
       width="1.24"
       x="-0.12"
       id="filter3425">
      <feGaussianBlur
         id="feGaussianBlur3427"
         stdDeviation="3.1"
         inkscape:collect="always" />
    </filter>
    <filter
       height="1.24"
       y="-0.12"
       width="1.24"
       x="-0.12"
       id="filter3431">
      <feGaussianBlur
         id="feGaussianBlur3433"
         stdDeviation="2"
         inkscape:collect="always" />
    </filter>
    <filter
       height="1.2229921"
       y="-0.11149603"
       width="1.2598166"
       x="-0.12990829"
       id="filter3444">
      <feGaussianBlur
         id="feGaussianBlur3446"
         stdDeviation="2.8801036"
         inkscape:collect="always" />
    </filter>
    <filter
       height="1.24"
       y="-0.12"
       width="1.24"
       x="-0.12"
       id="filter3460">
      <feGaussianBlur
         id="feGaussianBlur3462"
         stdDeviation="3.1"
         inkscape:collect="always" />
    </filter>
    <filter
       id="filter3486">
      <feGaussianBlur
         id="feGaussianBlur3488"
         stdDeviation="0.35743037"
         inkscape:collect="always" />
    </filter>
  </defs>
  <use
     transform="translate(-2,2)"
     id="use3429"
     style="filter:url(#filter3431)"
     x="0"
     y="0"
     width="100"
     height="100"
     xlink:href="#path3172" />
  <path
     d="M 66,40 C 66,56.568542 52.568542,70 36,70 C 19.431458,70 6,56.568542 6,40 C 6,23.431458 19.431458,10 36,10 C 52.568542,10 66,23.431458 66,40 L 66,40 z"
     id="use3448"
     style="fill:none;fill-opacity:0.07843137;stroke:#1a1a1a;stroke-width:2;stroke-linecap:round;stroke-linejoin:round;stroke-miterlimit:4;stroke-dasharray:none;stroke-opacity:1;filter:url(#filter3460)" />
  <path
     d="M 57,61 C 57,61 58,67 64,71 C 70,75 85,95 85,95 C 90,95 95,90 95,85 C 95,85 75,70 71,64 C 67.448186,58.672279 61,57 61,57"
     id="path3172"
     style="fill:#501616;fill-opacity:1;fill-rule:evenodd;stroke:#1a1a1a;stroke-width:2;stroke-linecap:butt;stroke-linejoin:round;stroke-miterlimit:4;stroke-dasharray:none;stroke-opacity:1" />
  <path
     d="M 70,40 C 70,56.568542 56.568542,70 40,70 C 23.431458,70 10,56.568542 10,40 C 10,23.431458 23.431458,10 40,10 C 56.568542,10 70,23.431458 70,40 L 70,40 z"
     transform="translate(-2.5,-2.5)"
     id="path3180"
     style="opacity:1;fill:#000000;fill-opacity:0.07843137;stroke:#1a1a1a;stroke-width:2;stroke-linecap:round;stroke-linejoin:round;stroke-miterlimit:4;stroke-dasharray:none;stroke-opacity:1" />
  <path
     d="M 18.786796,18.786797 C 30.496484,7.0771084 49.503515,7.0771081 61.213203,18.786796 C 72.922892,30.496484 72.922892,49.503515 61.213204,61.213203 C 55.35836,67.068047 48.280001,70 40.000001,70 C 40.000001,70 63.5,59.5 53.5,34.5 C 43.5,9.5 18.786796,18.786797 18.786796,18.786797 z"
     transform="translate(-2.5,-2.5)"
     id="use3439"
     style="opacity:0.2;fill:#000000;fill-opacity:1;stroke:#000000;stroke-width:2;stroke-linecap:round;stroke-linejoin:round;stroke-miterlimit:4;stroke-opacity:1;filter:url(#filter3444)" />
  <path
     d="M 40,15 C 45,15 50,25 50,30"
     id="path3339"
     style="stroke:#ffffff;stroke-width:5;stroke-linecap:butt;stroke-linejoin:miter;stroke-miterlimit:4;stroke-dasharray:none;stroke-opacity:1;filter:url(#filter3419)" />
</svg>
