<?xml version="1.0" encoding="UTF-8" standalone="no"?>
<!-- Author: Aziz Köksal -->
<!-- Created with Inkscape (http://www.inkscape.org/) -->
<svg
   xmlns:svg="http://www.w3.org/2000/svg"
   xmlns="http://www.w3.org/2000/svg"
   xmlns:xlink="http://www.w3.org/1999/xlink"
   xmlns:inkscape="http://www.inkscape.org/namespaces/inkscape"
   version="1.0"
   width="100"
   height="100"
   id="svg2">
  <defs
     id="defs4">
    <filter
       id="filter3172">
      <feGaussianBlur
         id="feGaussianBlur3174"
         stdDeviation="0.69506753"
         inkscape:collect="always" />
    </filter>
  </defs>
  <path
     d="M 47.469926,68.104857 L 49.578322,77.522355 C 51.967833,88.064319 55.622394,92 62.509809,92 C 67.710512,92 70.240597,90.313276 76.706335,82.441943 C 79.236407,79.490193 79.658092,78.787385 83.31264,72.321647 L 78.955291,69.932133 C 77.549695,72.181085 77.128012,72.883889 75.01962,75.835639 C 70.943393,81.31746 68.553872,83.42586 66.023802,83.42586 C 62.790932,83.42586 61.385331,80.333536 58.855258,68.807656 L 56.184625,55.454488 L 62.36925,44.069155 C 65.742678,37.743977 68.694437,34.651658 71.224508,34.651658 C 72.348985,34.651658 73.051785,35.213898 73.614024,36.478933 C 74.879058,39.290124 75.862981,39.992925 78.393051,39.992925 C 82.750396,39.992925 85.421035,37.041167 85.421035,32.402703 C 85.421035,27.48312 82.047598,23.828564 77.409134,23.828564 C 73.614028,23.828564 69.39723,25.796402 66.445481,29.029271 C 63.634291,32.121581 63.493723,32.121593 58.7147,40.976842 L 54.638469,48.285945 L 53.092312,40.555163 C 50.702801,28.467045 47.610481,23.828564 41.847539,23.828564 C 38.75523,23.828564 35.662911,25.655843 32.148922,29.59151 C 29.89997,32.121581 27.932126,34.932786 21.606948,44.069155 L 25.683178,47.020908 C 32.851714,36.760063 34.819558,34.651658 37.20907,34.651658 C 38.192988,34.651658 39.598585,35.635576 40.160823,36.760053 C 41.42586,39.009005 41.425863,39.009021 44.237054,52.924414 L 45.923769,61.076874 L 39.598585,72.321647 C 35.662918,79.490183 32.14892,83.42586 29.899968,83.42586 C 28.916051,83.42586 28.072692,82.441941 27.791573,80.614667 C 27.088775,76.81956 25.261496,75.13284 21.747508,75.13284 C 17.530722,75.13284 14.578965,78.506277 14.578965,83.285301 C 14.578965,88.486003 18.233522,92 23.855902,92 C 30.602759,92 37.209077,86.377603 43.253136,75.695079 L 47.469926,68.104857"
     id="text2395"
     style="font-size:140.55966187px;font-style:normal;font-variant:normal;font-weight:normal;font-stretch:normal;opacity:0.6;fill:#000000;fill-opacity:1;stroke:none;stroke-width:1px;stroke-linecap:butt;stroke-linejoin:miter;stroke-opacity:1;font-family:Bitstream Vera Serif;-inkscape-font-specification:Bitstream Vera Serif" />
  <use
     transform="translate(2,2)"
     id="use3170"
     style="opacity:0.3;filter:url(#filter3172)"
     x="0"
     y="0"
     width="100"
     height="100"
     xlink:href="#text2395" />
</svg>
