<?xml version="1.0" encoding="UTF-8" standalone="no"?>
<!-- Author: Aziz Köksal -->
<!-- Created with Inkscape (http://www.inkscape.org/) -->
<svg
   xmlns:svg="http://www.w3.org/2000/svg"
   xmlns="http://www.w3.org/2000/svg"
   xmlns:xlink="http://www.w3.org/1999/xlink"
   xmlns:inkscape="http://www.inkscape.org/namespaces/inkscape"
   version="1.0"
   width="100"
   height="100"
   id="svg2383">
  <defs
     id="defs2386">
    <filter
       id="filter3188">
      <feGaussianBlur
         id="feGaussianBlur3190"
         stdDeviation="0.75125"
         inkscape:collect="always" />
    </filter>
    <filter
       id="filter3564">
      <feGaussianBlur
         id="feGaussianBlur3566"
         stdDeviation="0.75224367"
         inkscape:collect="always" />
    </filter>
  </defs>
  <use
     transform="translate(4,4)"
     id="use3208"
     style="opacity:0.8;filter:url(#filter3564)"
     x="0"
     y="0"
     width="100"
     height="100"
     xlink:href="#path3206" />
  <path
     d="M 15,85 C 38.333351,85.666656 59.50974,87.627489 80,90 C 78.682859,76.921786 75.871445,68.362853 85,15 C 63.981702,12.036595 42.714565,9.5708704 20,10 C 20.989595,57.009022 17.901029,70.227575 15,85 z"
     id="path3206"
     style="fill:#e6e6e6;fill-rule:evenodd;stroke:#cccccc;stroke-width:0.2;stroke-linecap:butt;stroke-linejoin:miter;stroke-miterlimit:4;stroke-dasharray:none;stroke-opacity:1" />
  <path
     d="M 26.558337,30.611646 C 32.083609,30.554027 37.420233,33.20729 42.970976,32.146392 C 46.354857,31.54841 47.215191,35.993059 50.487606,35.927487 C 56.957845,36.867785 63.572039,35.866242 70,37.234977 C 72.036257,37.028146 77.115591,38.637718 73.95973,40.979004 C 71.679848,41.261349 70.352824,38.44506 67.73595,39.011909 C 63.337828,38.253041 58.878199,38.117956 54.428103,38.21986 C 51.306891,38.148917 48.137766,37.859025 45.190832,36.762662 C 43.620452,33.806972 40.166207,33.549487 37.301677,34.190981 C 33.080451,34.108866 29.019284,32.476359 24.812287,32.524234 C 23.815735,31.834233 26.154631,31.102613 26.558337,30.611646 z"
     id="path3180"
     style="opacity:1;fill:#000000;fill-opacity:1;stroke:#cccccc;stroke-width:0.116;stroke-linecap:round;stroke-linejoin:round;stroke-miterlimit:4;stroke-dasharray:none" />
  <path
     d="M 25.004608,44.334309 C 28.097932,44.480613 33.112096,41.771632 35,45 C 36.27734,47.9479 39.711684,49.315694 42.741935,48.566556 C 46.229861,47.893431 49.736158,46.538061 53.33197,47.387796 C 57.228992,47.897179 59.669096,51.081958 62.297022,53.605439 C 63.850403,54.761953 63.559725,56.47001 64.025586,56.127381 C 64.500337,55.778213 68.17233,53.835607 70.941886,54.535014 C 74.032848,56.13884 68.762913,57.323419 67.297946,56.342488 C 66.119124,56.657475 65.093603,57.300088 64.21055,57.620535 C 63.087273,58.028155 61.145832,58.127999 59.720534,55.170268 C 57.115635,52.409362 54.201525,49.294422 50.142811,49.085896 C 45.806789,48.402146 41.713353,50.909565 37.413051,50.456916 C 33.48207,50.652393 33.321775,45.671094 30.007296,45.293138 C 27.544866,45.032372 25.209266,46.357164 22.75242,46.044434 C 23.470505,45.431854 24.283639,44.943234 25.004608,44.334309 z"
     id="path3182"
     style="opacity:1;fill:#000000;fill-opacity:1;stroke:#cccccc;stroke-width:0.116;stroke-linecap:round;stroke-linejoin:round;stroke-miterlimit:4;stroke-dasharray:none" />
  <path
     d="M 25.362849,60.308199 C 24.066503,63.485714 28.264899,64.833619 30.70088,64.281124 C 34.397257,63.564237 38.275937,62.618273 42.031238,63.502652 C 44.219241,65.922027 47.500597,67.871359 50.756229,66.287362 C 54.589477,65.363807 58.437875,63.481298 62.457172,64.131598 C 64.531395,65.203859 66.788808,67.727389 67.900452,69.012733 C 65.329845,72.021835 62.267497,67.788547 60.513091,66.041613 C 57.802704,65.286108 54.951295,66.342587 52.300618,66.98431 C 49.512148,67.835542 46.632339,68.897789 43.668218,68.480096 C 41.169742,66.598271 38.411214,63.839844 35,65 C 31.254104,65.079981 27.350116,67.163749 23.720255,65.363419 C 20.846144,63.843512 22.922971,60.667231 25.362849,60.308199 z"
     id="path3184"
     style="opacity:1;fill:#000000;fill-opacity:1;stroke:#cccccc;stroke-width:0.116;stroke-linecap:round;stroke-linejoin:round;stroke-miterlimit:4;stroke-dasharray:none" />
  <path
     d="M 19.400789,79.538482 C 22.598741,76.954275 25.711326,74.031875 29.682381,72.689396 C 32.145694,74.666263 34.849835,77.778622 38.360081,76.432275 C 41.879165,75.498541 45.237281,76.751995 47.650246,79.275987 C 52.587387,82.100007 58.488589,81.955197 63.992667,82.094083 C 66.258223,81.41617 68.101397,82.662549 68.804884,84.611385 C 69.789948,84.746201 71.785294,83.685271 70,85 C 68.776787,86.993976 64.6796,86.84797 64.825452,84.020569 C 58.605421,83.609244 52.189712,83.792223 46.255457,81.596877 C 43.578642,79.664229 40.67873,77.10162 37.102685,78.185146 C 34.379926,78.485196 30.78334,78.732232 29.236144,75.940842 C 28.475933,74.996153 25.81984,74.404421 27.525712,74.21545 C 24.994828,75.64246 23.297825,78.241605 20.448358,79.148365 C 20.102943,79.288274 19.753215,79.417384 19.400789,79.538482 z"
     id="path3186"
     style="opacity:1;fill:#000000;fill-opacity:1;stroke:#cccccc;stroke-width:0.116;stroke-linecap:round;stroke-linejoin:round;stroke-miterlimit:4;stroke-dasharray:none" />
  <text
     id="text3210"
     xml:space="preserve"
     style="font-size:5px;font-style:normal;font-weight:normal;fill:#000000;fill-opacity:1;stroke:none;stroke-width:1px;stroke-linecap:butt;stroke-linejoin:miter;stroke-opacity:1;font-family:Bitstream Vera Sans"><textPath
       xlink:href="#path3214"
       id="textPath3216"
       style="font-size:11px;font-style:oblique;font-variant:normal;font-weight:bold;font-stretch:normal;fill:#000080;font-family:Bitstream Vera Sans;-inkscape-font-specification:Bitstream Vera Sans Bold Oblique">module x;</textPath></text>
  <path
     d="M 22.017277,22.676303 C 24.30817,22.53859 28.69242,21.287348 31.004575,21.453573 C 34.06956,21.511547 37.395335,21.699339 38.520051,22.620484 C 41.978078,23.250112 46.604977,23.436021 49.97016,23.592285 C 53.670054,24.027047 57.488221,22.646609 60.993226,23.385036 C 63.458068,23.216797 68.831092,24.881181 71.722058,25.846248 C 74.049579,26.623225 81.220399,25.331811 82.941223,26.22971"
     id="path3214"
     style="fill:none;fill-rule:evenodd;stroke:#000000;stroke-width:0;stroke-linecap:butt;stroke-linejoin:miter;stroke-miterlimit:4;stroke-dasharray:none;stroke-opacity:1" />
</svg>
