<?xml version="1.0" encoding="UTF-8" standalone="no"?>
<!-- Author: Aziz Köksal -->
<!-- Created with Inkscape (http://www.inkscape.org/) -->
<svg
   xmlns:svg="http://www.w3.org/2000/svg"
   xmlns="http://www.w3.org/2000/svg"
   xmlns:inkscape="http://www.inkscape.org/namespaces/inkscape"
   version="1.0"
   width="100"
   height="100"
   id="svg2383">
  <defs
     id="defs2386">
    <filter
       height="1.4912031"
       y="-0.24560156"
       width="1.1587929"
       x="-0.079396389"
       id="filter3195">
      <feGaussianBlur
         id="feGaussianBlur3197"
         stdDeviation="2.253392"
         inkscape:collect="always" />
    </filter>
  </defs>
  <path
     d="M 50.000001,19.586956 C 50.000001,19.586956 27.782624,43.391308 26.195666,44.978265 C 24.608704,46.565208 8.7391406,51.326082 2.3913086,51.326082 C 10.3261,46.565208 18.26087,35.456519 18.26087,35.456519 C 33.031135,29.398393 46.308135,23.61404 50.000001,19.586956 z"
     id="path5483"
     style="fill:#c87137;fill-rule:evenodd;stroke:#d38d5f;stroke-width:1.58695602px;stroke-linecap:butt;stroke-linejoin:round;stroke-opacity:1" />
  <path
     d="M 17,77 C 30,85 50,93.019976 50,93.019976 C 50,93.019976 70,81 83,76 C 86,72 82,72 82,72 L 50,88.019976 L 20,72 C 20,72 18,74 17,77 z"
     id="path5566"
     style="opacity:0.7;fill:#000000;fill-opacity:1;fill-rule:evenodd;stroke:#000000;stroke-width:1px;stroke-linecap:butt;stroke-linejoin:miter;stroke-opacity:1;filter:url(#filter3195)" />
  <path
     d="M 18.26087,75.130439 C 16.673913,76.717396 46.826102,91 50,91 C 51.586959,91 65.869572,81.478269 81.739143,75.130439 C 83.822914,74.29692 81.739143,35.456519 81.739143,35.456519 L 50,51.326082 L 50,91 L 50,51.326082 L 18.26087,35.456519 C 18.26087,35.456519 19.84783,73.543479 18.26087,75.130439 z"
     id="path2400"
     style="fill:#a05a2c;fill-rule:evenodd;stroke:#d38d5f;stroke-width:1.58695602px;stroke-linecap:butt;stroke-linejoin:round;stroke-opacity:1" />
  <path
     d="M 23.021746,64.021743 C 23.021746,64.021743 46.743063,73.360964 45.281377,75.135121 C 45.239144,76.717396 45.239144,84.65217 45.281377,86.248514 C 37.304351,81.478269 27.782622,76.717396 23.021746,75.135121 C 24.608704,71.956519 23.021746,64.021743 23.021746,64.021743 z"
     id="rect5485"
     style="fill:#ececec;fill-opacity:1;stroke:#cccccc;stroke-width:0.25775439;stroke-linecap:round;stroke-linejoin:round;stroke-miterlimit:4;stroke-dasharray:none" />
  <path
     d="M 50,19.586956 C 40.781289,26.700408 27.743995,30.193848 18.26087,35.456519 L 50,51.326082 L 50,51.326082 L 81.739143,35.456519 C 68.560252,30.166997 61.113281,26.167477 50,19.586956 z"
     id="path4000"
     style="fill:#784421;fill-opacity:1;fill-rule:evenodd;stroke:#d38d5f;stroke-width:1.58695602px;stroke-linecap:butt;stroke-linejoin:bevel;stroke-opacity:1" />
  <path
     d="M 50,21.193256 L 50,51.206245"
     id="path3998"
     style="fill:#a05a2c;fill-rule:evenodd;stroke:#a05a2c;stroke-width:1.3802098;stroke-linecap:round;stroke-linejoin:round;marker-start:none;stroke-miterlimit:4;stroke-dasharray:none;stroke-opacity:1" />
  <path
     d="M 50,51.326082 C 50,51.326082 62.695664,65.608689 65.869572,67.195648 C 69.043482,68.782605 99.195711,52.913039 97.608701,51.326082 C 96.021749,49.739128 81.739143,35.456519 81.739143,35.456519 L 50,51.326082 z"
     id="path3994"
     style="fill:#c87137;fill-rule:evenodd;stroke:#d38d5f;stroke-width:1.58695602px;stroke-linecap:butt;stroke-linejoin:bevel;stroke-opacity:1" />
  <path
     d="M 50,51.326082 C 50,51.326082 43.652184,73.543479 42.065224,71.956519 C 40.478268,70.369563 7.1521809,57.673919 10.3261,56.086959 C 13.499999,54.499999 18.26087,35.456519 18.26087,35.456519 L 50,51.326082 z"
     id="path3996"
     style="fill:#c87137;fill-rule:evenodd;stroke:#d38d5f;stroke-width:1.58695602px;stroke-linecap:butt;stroke-linejoin:bevel;stroke-opacity:1" />
  <path
     d="M 25.263159,67.35836 C 26.812934,67.348965 28.019513,68.458282 29.092559,69.438123 C 29.759761,70.070281 30.748345,69.950698 31.587473,70.132881 C 32.457379,70.284034 33.564481,70.476833 33.88633,71.43804 C 34.242291,72.528462 35.199677,73.658332 36.456654,73.515015 C 37.240323,73.269843 38.435823,73.316458 38.666088,74.293749 C 38.982761,75.138801 39.842066,75.700949 40.742626,75.662665 C 41.556234,75.54712 41.979239,76.171227 42.118136,76.845966 C 42.945444,77.364435 41.680508,77.620631 41.346443,77.968559 C 40.545371,77.724325 40.732387,76.199911 39.640389,76.532753 C 38.602791,76.493842 37.593344,75.806843 37.318406,74.780575 C 36.900657,74.027338 35.945201,74.308234 35.253033,74.355555 C 34.132986,74.459028 33.286124,73.500863 32.804599,72.60074 C 32.618541,71.822002 31.990558,71.176509 31.173469,71.106444 C 30.232442,70.850593 29.211616,70.928309 28.305787,70.554138 C 27.594758,70.040703 27.0513,69.321492 26.260993,68.903812 C 25.715671,68.363658 24.713044,68.363175 24.199608,68.121746 C 24.553951,67.868879 24.912603,67.618598 25.263159,67.35836 z"
     id="path5488"
     style="opacity:1;fill:#999999;fill-opacity:1;stroke:#cccccc;stroke-width:0.18408689;stroke-linecap:round;stroke-linejoin:round;stroke-miterlimit:4;stroke-dasharray:none" />
  <path
     d="M 25.271456,72.738136 C 26.163639,73.047395 26.848456,74.061396 27.888395,73.833237 C 28.568576,73.662787 29.650526,73.584104 29.876612,74.438611 C 29.729234,75.654531 31.152299,74.982926 31.747427,75.40617 C 32.323447,76.042686 33.124058,76.611736 34.027644,76.479612 C 35.158144,76.5097 34.862026,78.133524 35.530584,78.424034 C 36.466319,78.281458 38,78.204141 38.375536,79 C 38.700231,79.688113 39.566609,79.361 40.11192,80.18245 C 40.773212,80.427424 41.718064,80.146557 42.14066,80.862257 C 42.668062,81.356122 43.629143,82.416923 42.447408,82.789769 C 41.440284,83.127394 41.377266,81.770947 40.689659,81.433795 C 39.796769,81.064583 38.437792,81.540602 38,80.386285 C 37.558925,79.223312 36.377508,79.530806 35.437641,79.2555 C 34.801361,79.245134 33.802741,79.575843 33.76576,78.581024 C 33.860804,77.793013 33.302432,77.302899 32.552902,77.287702 C 31.915194,77.195461 31.103093,77.105529 30.828441,76.420775 C 30.260056,75.717673 28.816888,76.556848 28.622525,75.449438 C 28.64939,74.541181 27.760706,74.481721 27.093232,74.66113 C 26.297668,74.752148 25.453417,74.568742 24.867246,73.99638 C 23.909329,73.646077 24.485095,73.114776 25.122078,72.842223 L 25.196767,72.790179 L 25.271456,72.738136 L 25.271456,72.738136 z"
     id="path5494"
     style="opacity:1;fill:#999999;fill-opacity:1;stroke:#cccccc;stroke-width:0.18408689;stroke-linecap:round;stroke-linejoin:round;stroke-miterlimit:4;stroke-dasharray:none" />
</svg>
