<?xml version="1.0" encoding="UTF-8" standalone="no"?>
<!-- Author: Aziz Köksal -->
<!-- Created with Inkscape (http://www.inkscape.org/) -->
<svg
   xmlns:svg="http://www.w3.org/2000/svg"
   xmlns="http://www.w3.org/2000/svg"
   xmlns:xlink="http://www.w3.org/1999/xlink"
   xmlns:inkscape="http://www.inkscape.org/namespaces/inkscape"
   version="1.0"
   width="100"
   height="100"
   id="svg2">
  <defs
     id="defs4">
    <filter
       id="filter3177">
      <feGaussianBlur
         id="feGaussianBlur3179"
         stdDeviation="0.6174"
         inkscape:collect="always" />
    </filter>
  </defs>
  <path
     d="M 70.51,73.66 C 62.250008,82.199992 56.089992,85.42 48.81,85.42 C 40.410008,85.42 35.23,79.819992 35.23,70.86 C 35.23,69.880001 35.37,67.919999 35.51,66.1 C 51.889983,62.180004 54.690006,61.339998 60.99,58.54 C 71.769989,53.780005 77.79,46.639992 77.79,38.52 C 77.79,29.980009 70.92999,24.1 61.13,24.1 C 40.69002,24.1 22.21,44.960023 22.21,67.78 C 22.21,82.899985 31.310015,92 46.43,92 C 57.209989,92 66.310007,87.239991 73.87,77.44 L 70.51,73.66 M 36.21,60.64 C 39.429997,41.740019 47.97001,29.7 58.33,29.7 C 62.949995,29.7 66.03,32.920005 66.03,37.68 C 66.03,45.379993 60.56999,51.960005 50.49,56.44 C 46.430004,58.259999 44.049992,58.960002 36.21,60.64"
     id="text2394"
     style="font-size:100px;font-style:normal;font-weight:normal;opacity:0.6;fill:#000000;fill-opacity:1;stroke:none;stroke-width:1px;stroke-linecap:butt;stroke-linejoin:miter;stroke-opacity:1;font-family:Bitstream Vera Sans" />
  <use
      transform="translate(2,2)"
      id="use3175"
      style="opacity:0.3;filter:url(#filter3177)"
      x="0"
      y="0"
      width="100"
      height="100"
      xlink:href="#text2394" />
</svg>
